<svg width="93" height="26" viewBox="0 0 93 26" fill="none" xmlns="http://www.w3.org/2000/svg">
<g clip-path="url(#clip0_1_8458)">
<mask id="mask0_1_8458" style="mask-type:luminance" maskUnits="userSpaceOnUse" x="1" y="0" width="92" height="26">
<path d="M92.25 0H1.25V25.2816H92.25V0Z" fill="white"/>
</mask>
<g mask="url(#mask0_1_8458)">
<path d="M5.41159 0V14.3575L12.4169 6.69322H17.5149L10.6482 13.7679L18.0697 24.9002H13.2492L7.8045 16.681L5.41159 19.1086V24.9002H1.25V0H5.41159Z" fill="white"/>
<path d="M20.4286 22.5421C18.9026 20.8428 18.0703 18.4846 18.0703 15.8142C18.0703 13.2826 18.9026 10.8897 20.3939 9.19043C22.0238 7.35239 24.2433 6.34668 26.7403 6.34668C29.2372 6.34668 31.1793 7.17899 32.6359 8.84363C34.0924 10.4735 34.8207 12.6584 34.8207 15.3287V16.7159H22.0585C22.3706 19.8024 24.2433 21.7445 26.9137 21.7445C28.9945 21.7445 30.5898 20.6348 31.1446 18.8315L34.7167 20.1839C33.4335 23.3744 30.5204 25.2818 26.9137 25.2818C24.3127 25.2818 22.0585 24.3108 20.4286 22.5421ZM22.2666 13.5947H30.6244C30.5898 11.3405 29.0985 9.84934 26.7056 9.84934C24.4861 9.84934 22.8561 11.2018 22.2666 13.5947Z" fill="white"/>
<path d="M41.7553 0V24.9002H37.5938V0H41.7553Z" fill="white"/>
<path d="M55.0384 24.9003H50.8421L44.1836 6.69336H48.5533L52.9923 19.9064L57.3966 6.69336H61.6969L55.0384 24.9003Z" fill="white"/>
<path d="M68.2866 6.69336V24.9003H64.125V6.69336H68.2866Z" fill="white"/>
<path d="M71.4062 24.9004V6.69348H75.5678V8.63555C76.851 7.14431 78.5503 6.34668 80.5964 6.34668C84.3418 6.34668 86.7001 8.91299 86.7001 12.9011V24.9004H82.5385V14.115C82.5385 11.6181 81.4287 10.2308 79.3479 10.2308C77.2671 10.2308 75.5678 11.8607 75.5678 14.219V24.9004H71.4062Z" fill="white"/>
<path d="M89.4756 0C87.9434 0 86.7012 1.24223 86.7012 2.77439C86.7012 4.30655 87.9434 5.54878 89.4756 5.54878C91.0077 5.54878 92.25 4.30655 92.25 2.77439C92.25 1.24223 91.0077 0 89.4756 0ZM89.4756 4.16159C88.7091 4.16159 88.0884 3.54082 88.0884 2.77439C88.0884 2.00796 88.7091 1.3872 89.4756 1.3872C90.242 1.3872 90.8628 2.00796 90.8628 2.77439C90.8628 3.54082 90.242 4.16159 89.4756 4.16159Z" fill="white"/>
</g>
</g>
<defs>
<clipPath id="clip0_1_8458">
<rect width="92" height="26" fill="white" transform="translate(0.75)"/>
</clipPath>
</defs>
</svg>
